G04 #@! TF.FileFunction,Soldermask,Bot*
%FSLAX46Y46*%
G04 Gerber Fmt 4.6, Leading zero omitted, Abs format (unit mm)*
G04 Created by KiCad (PCBNEW (2015-08-16 BZR 6097, Git b384c94)-product) date 30.08.2015 23:23:13*
%MOMM*%
G01*
G04 APERTURE LIST*
%ADD10C,0.100000*%
%ADD11C,1.100000*%
%ADD12R,1.089000X1.216000*%
%ADD13R,1.343000X1.597000*%
%ADD14R,1.216000X1.089000*%
%ADD15R,1.700000X1.700000*%
%ADD16C,1.700000*%
%ADD17R,1.597000X1.343000*%
%ADD18R,0.800000X0.800000*%
%ADD19O,0.708000X1.701140*%
%ADD20R,0.708000X1.701140*%
%ADD21O,1.599540X0.708000*%
%ADD22R,1.599540X0.708000*%
%ADD23R,1.300000X1.300000*%
%ADD24C,0.470000*%
%ADD25R,1.398880X0.499720*%
%ADD26O,1.398880X0.499720*%
%ADD27O,0.499720X1.398880*%
%ADD28R,1.300000X0.480000*%
%ADD29O,1.300000X0.480000*%
%ADD30O,0.480000X1.300000*%
%ADD31R,1.200000X1.300000*%
%ADD32R,1.100000X1.300000*%
%ADD33C,6.200000*%
%ADD34R,1.800000X1.300000*%
%ADD35R,1.200000X1.100000*%
%ADD36R,1.100000X1.200000*%
%ADD37C,3.000000*%
%ADD38C,2.000860*%
%ADD39C,2.300580*%
%ADD40C,2.400000*%
%ADD41C,4.000000*%
%ADD42R,2.800000X1.300000*%
%ADD43O,2.800000X1.300000*%
%ADD44C,1.200000*%
%ADD45C,4.200000*%
%ADD46R,1.600000X1.200000*%
%ADD47C,2.900000*%
%ADD48R,0.550000X1.200000*%
%ADD49C,2.700000*%
G04 APERTURE END LIST*
D10*
D11*
X101500000Y-114500000D02*
X100500000Y-114500000D01*
X101500000Y-112000000D02*
X100500000Y-112000000D01*
X101500000Y-109500000D02*
X100500000Y-109500000D01*
X101500000Y-107000000D02*
X100500000Y-107000000D01*
D12*
X94988000Y-89750000D03*
X96512000Y-89750000D03*
D13*
X94984000Y-87750000D03*
X97016000Y-87750000D03*
D14*
X98750000Y-95762000D03*
X98750000Y-94238000D03*
X100500000Y-95762000D03*
X100500000Y-94238000D03*
D15*
X77700000Y-92800000D03*
D16*
X82700000Y-92800000D03*
D12*
X148988000Y-94750000D03*
X150512000Y-94750000D03*
D17*
X138000000Y-116984000D03*
X138000000Y-119016000D03*
D14*
X140000000Y-116738000D03*
X140000000Y-118262000D03*
X153500000Y-98262000D03*
X153500000Y-96738000D03*
D12*
X135262000Y-113500000D03*
X133738000Y-113500000D03*
X145162000Y-103000000D03*
X143638000Y-103000000D03*
D14*
X152250000Y-109238000D03*
X152250000Y-110762000D03*
D13*
X118266000Y-100750000D03*
X116234000Y-100750000D03*
D14*
X154750000Y-107988000D03*
X154750000Y-109512000D03*
X127000000Y-108238000D03*
X127000000Y-109762000D03*
X153500000Y-101762000D03*
X153500000Y-100238000D03*
D12*
X118512000Y-102750000D03*
X116988000Y-102750000D03*
X150512000Y-100000000D03*
X148988000Y-100000000D03*
D14*
X124500000Y-93762000D03*
X124500000Y-92238000D03*
D12*
X145162000Y-104800000D03*
X143638000Y-104800000D03*
D14*
X127750000Y-93762000D03*
X127750000Y-92238000D03*
D12*
X131638000Y-97200000D03*
X133162000Y-97200000D03*
D14*
X148750000Y-109238000D03*
X148750000Y-110762000D03*
D12*
X79438000Y-92800000D03*
X80962000Y-92800000D03*
D18*
X158750000Y-105500000D03*
X158750000Y-104500000D03*
D13*
X77784000Y-90000000D03*
X79816000Y-90000000D03*
D18*
X162250000Y-105500000D03*
X162250000Y-104500000D03*
D19*
X94905000Y-92206000D03*
D20*
X94905000Y-97794000D03*
D19*
X93635000Y-92206000D03*
X92365000Y-92206000D03*
X91095000Y-92206000D03*
X93635000Y-97794000D03*
X92365000Y-97794000D03*
X91095000Y-97794000D03*
D21*
X77206000Y-94895000D03*
D22*
X82794000Y-94895000D03*
D21*
X77206000Y-96165000D03*
X77206000Y-97435000D03*
X77206000Y-98705000D03*
X82794000Y-96165000D03*
X82794000Y-97435000D03*
X82794000Y-98705000D03*
D23*
X80000000Y-96800000D03*
X78900000Y-96800000D03*
X81100000Y-96800000D03*
X80000000Y-97900000D03*
X80000000Y-99000000D03*
X78900000Y-97900000D03*
X78900000Y-99000000D03*
X81100000Y-99000000D03*
X81100000Y-97900000D03*
X78900000Y-94600000D03*
X78900000Y-95700000D03*
X80000000Y-94600000D03*
X80000000Y-95700000D03*
X81100000Y-94600000D03*
X81100000Y-95700000D03*
D10*
G36*
X127389465Y-95639108D02*
X127721805Y-95971448D01*
X126731855Y-96961398D01*
X126399515Y-96629058D01*
X127389465Y-95639108D01*
X127389465Y-95639108D01*
G37*
D24*
X127743019Y-96325001D02*
X127085409Y-96982611D01*
X128096572Y-96678554D02*
X127438962Y-97336164D01*
X128450125Y-97032108D02*
X127792515Y-97689718D01*
X128803679Y-97385661D02*
X128146069Y-98043271D01*
X129157232Y-97739214D02*
X128499622Y-98396824D01*
X129510786Y-98092768D02*
X128853176Y-98750378D01*
X129864339Y-98446321D02*
X129206729Y-99103931D01*
X130217892Y-98799875D02*
X129560282Y-99457485D01*
X130571446Y-99153428D02*
X129913836Y-99811038D01*
X130924999Y-99506981D02*
X130267389Y-100164591D01*
X131278552Y-99860535D02*
X130620942Y-100518145D01*
X131278552Y-102639465D02*
X130620942Y-101981855D01*
X130924999Y-102993019D02*
X130267389Y-102335409D01*
X130571446Y-103346572D02*
X129913836Y-102688962D01*
X130217892Y-103700125D02*
X129560282Y-103042515D01*
X129864339Y-104053679D02*
X129206729Y-103396069D01*
X129510786Y-104407232D02*
X128853176Y-103749622D01*
X129157232Y-104760786D02*
X128499622Y-104103176D01*
X128803679Y-105114339D02*
X128146069Y-104456729D01*
X128450125Y-105467892D02*
X127792515Y-104810282D01*
X128096572Y-105821446D02*
X127438962Y-105163836D01*
X127743019Y-106174999D02*
X127085409Y-105517389D01*
X127389465Y-106528552D02*
X126731855Y-105870942D01*
X125268145Y-105870942D02*
X124610535Y-106528552D01*
X124914591Y-105517389D02*
X124256981Y-106174999D01*
X124561038Y-105163836D02*
X123903428Y-105821446D01*
X124207485Y-104810282D02*
X123549875Y-105467892D01*
X123853931Y-104456729D02*
X123196321Y-105114339D01*
X123500378Y-104103176D02*
X122842768Y-104760786D01*
X123146824Y-103749622D02*
X122489214Y-104407232D01*
X122793271Y-103396069D02*
X122135661Y-104053679D01*
X122439718Y-103042515D02*
X121782108Y-103700125D01*
X122086164Y-102688962D02*
X121428554Y-103346572D01*
X121732611Y-102335409D02*
X121075001Y-102993019D01*
X121379058Y-101981855D02*
X120721448Y-102639465D01*
X121379058Y-100518145D02*
X120721448Y-99860535D01*
X121732611Y-100164591D02*
X121075001Y-99506981D01*
X122086164Y-99811038D02*
X121428554Y-99153428D01*
X122439718Y-99457485D02*
X121782108Y-98799875D01*
X122793271Y-99103931D02*
X122135661Y-98446321D01*
X123146824Y-98750378D02*
X122489214Y-98092768D01*
X123500378Y-98396824D02*
X122842768Y-97739214D01*
X123853931Y-98043271D02*
X123196321Y-97385661D01*
X124207485Y-97689718D02*
X123549875Y-97032108D01*
X124561038Y-97336164D02*
X123903428Y-96678554D01*
X124914591Y-96982611D02*
X124256981Y-96325001D01*
X125268145Y-96629058D02*
X124610535Y-95971448D01*
D25*
X137498860Y-114000760D03*
D26*
X137498860Y-113500380D03*
X137498860Y-113000000D03*
X137498860Y-112499620D03*
X137498860Y-111999240D03*
D27*
X138499620Y-111498860D03*
X139000000Y-111498860D03*
X139500380Y-111498860D03*
D26*
X140501140Y-111999240D03*
X140501140Y-112499620D03*
X140501140Y-113000000D03*
X140501140Y-113500380D03*
X140501140Y-114000760D03*
D27*
X139500380Y-114501140D03*
X139000000Y-114501140D03*
X138499620Y-114501140D03*
D28*
X148050000Y-105750000D03*
D29*
X148050000Y-105250000D03*
X148050000Y-104750000D03*
X148050000Y-104250000D03*
X148050000Y-103750000D03*
D30*
X149000000Y-102800000D03*
X149500000Y-102800000D03*
X150000000Y-102800000D03*
X150500000Y-102800000D03*
X151000000Y-102800000D03*
D29*
X151950000Y-103750000D03*
X151950000Y-104250000D03*
X151950000Y-104750000D03*
X151950000Y-105250000D03*
X151950000Y-105750000D03*
D30*
X151000000Y-106700000D03*
X150500000Y-106700000D03*
X150000000Y-106700000D03*
X149500000Y-106700000D03*
X149000000Y-106700000D03*
D23*
X149450000Y-105300000D03*
X150550000Y-105300000D03*
X149450000Y-104200000D03*
X150550000Y-104200000D03*
D31*
X101750000Y-114500000D03*
D32*
X100200000Y-114500000D03*
D31*
X101750000Y-112000000D03*
D32*
X100200000Y-112000000D03*
D31*
X101750000Y-109500000D03*
D32*
X100200000Y-109500000D03*
D31*
X101750000Y-107000000D03*
D32*
X100200000Y-107000000D03*
D33*
X79000000Y-65000000D03*
X79000000Y-117000000D03*
X167000000Y-65000000D03*
X167000000Y-117000000D03*
D13*
X145266000Y-106750000D03*
X143234000Y-106750000D03*
X118145000Y-96432400D03*
X116113000Y-96432400D03*
D18*
X161000000Y-105500000D03*
X160000000Y-105500000D03*
D34*
X124000000Y-65400000D03*
X124000000Y-67000000D03*
X124000000Y-68600000D03*
X129000000Y-65400000D03*
X129000000Y-67000000D03*
X129000000Y-68600000D03*
D35*
X97000000Y-95750000D03*
X97000000Y-94250000D03*
X98750000Y-92500000D03*
X98750000Y-91000000D03*
D36*
X133500000Y-67000000D03*
X132000000Y-67000000D03*
X133500000Y-65250000D03*
X132000000Y-65250000D03*
X133500000Y-68750000D03*
X132000000Y-68750000D03*
D35*
X150500000Y-109250000D03*
X150500000Y-110750000D03*
X135000000Y-107750000D03*
X135000000Y-109250000D03*
X137000000Y-109250000D03*
X137000000Y-107750000D03*
D36*
X86750000Y-96200000D03*
X85250000Y-96200000D03*
D37*
X84000000Y-63000000D03*
X160750000Y-119000000D03*
D38*
X89500140Y-77500640D03*
X89500140Y-82499360D03*
X102499860Y-82499360D03*
X102499860Y-77500640D03*
D39*
X96000000Y-75682000D03*
X96000000Y-84318000D03*
D38*
X105500140Y-77500640D03*
X105500140Y-82499360D03*
X118499860Y-82499360D03*
X118499860Y-77500640D03*
D39*
X112000000Y-75682000D03*
X112000000Y-84318000D03*
D38*
X121500140Y-77500640D03*
X121500140Y-82499360D03*
X134499860Y-82499360D03*
X134499860Y-77500640D03*
D39*
X128000000Y-75682000D03*
X128000000Y-84318000D03*
D38*
X137500140Y-77500640D03*
X137500140Y-82499360D03*
X150499860Y-82499360D03*
X150499860Y-77500640D03*
D39*
X144000000Y-75682000D03*
X144000000Y-84318000D03*
D40*
X81600000Y-81600000D03*
X81600000Y-77600000D03*
X81600000Y-73600000D03*
D41*
X81600000Y-85850000D03*
X81600000Y-69350000D03*
D42*
X96932000Y-114560000D03*
D43*
X96932000Y-112020000D03*
X96932000Y-109480000D03*
X96932000Y-106940000D03*
X105568000Y-106940000D03*
X105568000Y-109480000D03*
X105568000Y-112020000D03*
X105568000Y-114560000D03*
D44*
X130250000Y-96500000D03*
X139800000Y-102400000D03*
X134400000Y-99800000D03*
D45*
X96000000Y-64000000D03*
X91500000Y-68500000D03*
X96000000Y-71000000D03*
D15*
X103000000Y-119500000D03*
D16*
X105540000Y-119500000D03*
X108080000Y-119500000D03*
X110620000Y-119500000D03*
D15*
X135000000Y-119500000D03*
D16*
X132460000Y-119500000D03*
X129920000Y-119500000D03*
X127380000Y-119500000D03*
X124840000Y-119500000D03*
X122300000Y-119500000D03*
D15*
X119000000Y-119500000D03*
D16*
X116460000Y-119500000D03*
X113920000Y-119500000D03*
D46*
X149150000Y-96700000D03*
X151350000Y-96700000D03*
X151350000Y-98300000D03*
X149150000Y-98300000D03*
D47*
X88150000Y-91000000D03*
X88150000Y-110300000D03*
X160650000Y-110300000D03*
X160650000Y-91000000D03*
X160650000Y-71700000D03*
X88150000Y-71700000D03*
D48*
X155400000Y-105400000D03*
X154750000Y-105400000D03*
X154100000Y-105400000D03*
X154100000Y-103600000D03*
X154750000Y-103600000D03*
X155400000Y-103600000D03*
D18*
X157500000Y-105500000D03*
X156500000Y-105500000D03*
D35*
X104400000Y-88850000D03*
X104400000Y-90350000D03*
X104400000Y-92050000D03*
X104400000Y-93550000D03*
D49*
X83400000Y-100980000D03*
X83400000Y-106060000D03*
X83400000Y-111140000D03*
M02*
