G04 #@! TF.FileFunction,Soldermask,Top*
%FSLAX46Y46*%
G04 Gerber Fmt 4.6, Leading zero omitted, Abs format (unit mm)*
G04 Created by KiCad (PCBNEW (2015-08-16 BZR 6097, Git b384c94)-product) date 30.08.2015 23:23:13*
%MOMM*%
G01*
G04 APERTURE LIST*
%ADD10C,0.100000*%
%ADD11R,1.700000X1.700000*%
%ADD12C,1.700000*%
%ADD13C,6.200000*%
%ADD14C,2.000860*%
%ADD15C,2.300580*%
%ADD16C,2.400000*%
%ADD17C,4.000000*%
%ADD18C,4.200000*%
%ADD19C,2.900000*%
%ADD20C,2.700000*%
G04 APERTURE END LIST*
D10*
D11*
X77700000Y-92800000D03*
D12*
X82700000Y-92800000D03*
D13*
X79000000Y-65000000D03*
X79000000Y-117000000D03*
X167000000Y-65000000D03*
X167000000Y-117000000D03*
D14*
X89500140Y-77500640D03*
X89500140Y-82499360D03*
X102499860Y-82499360D03*
X102499860Y-77500640D03*
D15*
X96000000Y-75682000D03*
X96000000Y-84318000D03*
D14*
X105500140Y-77500640D03*
X105500140Y-82499360D03*
X118499860Y-82499360D03*
X118499860Y-77500640D03*
D15*
X112000000Y-75682000D03*
X112000000Y-84318000D03*
D14*
X121500140Y-77500640D03*
X121500140Y-82499360D03*
X134499860Y-82499360D03*
X134499860Y-77500640D03*
D15*
X128000000Y-75682000D03*
X128000000Y-84318000D03*
D14*
X137500140Y-77500640D03*
X137500140Y-82499360D03*
X150499860Y-82499360D03*
X150499860Y-77500640D03*
D15*
X144000000Y-75682000D03*
X144000000Y-84318000D03*
D16*
X81600000Y-81600000D03*
X81600000Y-77600000D03*
X81600000Y-73600000D03*
D17*
X81600000Y-85850000D03*
X81600000Y-69350000D03*
D18*
X96000000Y-64000000D03*
X91500000Y-68500000D03*
X96000000Y-71000000D03*
D11*
X103000000Y-119500000D03*
D12*
X105540000Y-119500000D03*
X108080000Y-119500000D03*
X110620000Y-119500000D03*
D11*
X135000000Y-119500000D03*
D12*
X132460000Y-119500000D03*
X129920000Y-119500000D03*
X127380000Y-119500000D03*
X124840000Y-119500000D03*
X122300000Y-119500000D03*
D11*
X119000000Y-119500000D03*
D12*
X116460000Y-119500000D03*
X113920000Y-119500000D03*
D19*
X88150000Y-91000000D03*
X88150000Y-110300000D03*
X160650000Y-110300000D03*
X160650000Y-91000000D03*
X160650000Y-71700000D03*
X88150000Y-71700000D03*
D20*
X83400000Y-100980000D03*
X83400000Y-106060000D03*
X83400000Y-111140000D03*
M02*
