M48
;DRILL file {KiCad (2015-08-16 BZR 6097, Git b384c94)-product} date 30.08.2015 23:19:17
;FORMAT={-:-/ absolute / metric / decimal}
FMAT,2
METRIC,TZ
T1C0.300
T2C0.400
T3C0.500
T4C0.800
T5C0.900
T6C1.199
T7C1.200
T8C1.400
T9C1.600
T10C1.600
T11C2.200
T12C2.700
T13C3.500
%
G90
G05
M71
T1
X108.567Y-113.061
X109.331Y-110.781
X111.014Y-108.142
X112.767Y-105.322
X119.168Y-106.759
X119.857Y-105.62
X120.04Y-98.227
X120.066Y-99.34
X121.147Y-98.148
X121.781Y-101.25
X122.044Y-97.495
X122.277Y-106.632
X123.42Y-99.776
X123.87Y-95.585
X124.154Y-98.946
X124.331Y-100.537
X125.856Y-102.675
X127.298Y-103.402
X128.44Y-101.397
X128.773Y-102.682
X129.96Y-90.242
X130.786Y-89.325
X131.487Y-87.406
X133.834Y-104.544
X133.914Y-100.787
X134.525Y-110.4
X136.397Y-101.326
X138.1Y-109.549
X138.827Y-101.853
X139.243Y-112.763
X141.643Y-105.689
X146.182Y-105.537
X146.783Y-104.692
X147.045Y-106.282
T2
X77.2Y-100.6
X77.2Y-104.6
X77.2Y-108.4
X77.2Y-112.2
X80.4Y-108.
X80.6Y-102.8
X80.817Y-112.494
X81.2Y-90.
X83.Y-119.4
X84.6Y-90.
X84.6Y-114.6
X86.Y-93.4
X86.Y-99.8
X86.Y-104.
X86.2Y-106.8
X86.8Y-87.
X87.2Y-67.6
X87.2Y-79.2
X87.6Y-119.2
X88.8Y-62.4
X88.8Y-114.8
X90.Y-101.8
X91.Y-94.4
X91.Y-106.2
X91.73Y-96.654
X91.8Y-111.
X92.Y-89.2
X92.2Y-119.4
X92.6Y-76.4
X93.2Y-108.8
X93.6Y-115.
X94.6Y-101.6
X94.8Y-95.4
X95.704Y-110.581
X95.8Y-104.6
X96.Y-80.
X96.Y-119.4
X96.708Y-90.908
X97.4Y-97.6
X98.6Y-67.4
X98.6Y-87.8
X98.8Y-89.8
X99.4Y-76.
X99.4Y-101.6
X99.8Y-119.4
X101.2Y-104.4
X101.8Y-88.
X102.2Y-72.2
X102.4Y-62.2
X102.4Y-67.2
X102.4Y-93.
X103.Y-97.4
X104.Y-101.2
X106.4Y-104.
X107.2Y-88.
X107.4Y-92.6
X107.967Y-115.991
X108.2Y-62.2
X108.2Y-67.4
X108.2Y-97.2
X108.4Y-72.2
X108.4Y-84.2
X109.Y-77.6
X109.2Y-101.
X110.4Y-94.8
X110.689Y-103.608
X111.2Y-115.
X112.Y-80.2
X112.2Y-87.8
X113.2Y-72.2
X113.2Y-93.
X114.2Y-62.2
X114.2Y-67.
X114.2Y-115.8
X115.2Y-77.6
X115.6Y-91.8
X115.6Y-105.6
X115.8Y-84.2
X115.898Y-102.153
X116.462Y-116.8
X116.8Y-111.
X117.6Y-72.4
X117.727Y-103.838
X117.8Y-87.4
X118.6Y-117.4
X118.837Y-104.306
X119.Y-62.2
X119.2Y-66.8
X119.366Y-96.71
X119.4Y-92.4
X119.487Y-100.89
X120.02Y-103.337
X120.6Y-85.8
X120.8Y-112.2
X122.2Y-72.8
X122.2Y-108.8
X123.Y-114.
X123.Y-117.4
X123.354Y-94.081
X124.2Y-62.
X124.386Y-103.481
X124.6Y-81.4
X124.6Y-85.6
X125.021Y-77.496
X125.388Y-89.303
X125.4Y-71.4
X125.59Y-95.482
X125.6Y-117.4
X125.646Y-93.442
X125.672Y-99.667
X126.029Y-92.305
X126.083Y-107.288
X126.592Y-104.907
X127.107Y-110.934
X127.8Y-117.4
X128.4Y-87.6
X128.596Y-99.597
X128.8Y-92.4
X129.4Y-62.2
X129.6Y-101.4
X129.6Y-109.2
X129.6Y-113.8
X129.8Y-81.4
X130.Y-117.6
X130.4Y-105.6
X130.431Y-77.503
X130.8Y-71.
X131.168Y-94.657
X131.8Y-101.2
X132.2Y-111.2
X132.348Y-94.429
X132.4Y-106.8
X132.4Y-117.2
X132.6Y-92.4
X132.614Y-98.356
X132.622Y-113.444
X133.Y-96.
X133.851Y-108.17
X134.8Y-62.2
X135.Y-116.2
X135.557Y-112.01
X135.6Y-88.
X136.Y-99.6
X136.133Y-103.268
X136.24Y-115.12
X136.8Y-96.2
X137.148Y-111.199
X137.2Y-91.6
X137.357Y-105.771
X137.8Y-71.8
X138.Y-66.4
X139.012Y-110.25
X140.Y-120.
X140.079Y-106.61
X140.4Y-89.6
X140.4Y-94.6
X140.429Y-109.192
X140.6Y-81.2
X140.6Y-85.2
X140.656Y-99.145
X140.81Y-77.496
X140.976Y-102.823
X141.4Y-115.6
X142.146Y-107.843
X142.2Y-62.
X142.2Y-111.8
X142.556Y-102.617
X143.2Y-117.2
X143.4Y-120.
X143.6Y-97.4
X143.8Y-66.2
X144.Y-91.8
X144.2Y-71.8
X144.4Y-109.8
X144.8Y-114.
X146.472Y-107.596
X146.598Y-77.495
X146.8Y-62.
X146.8Y-89.4
X146.8Y-94.4
X146.8Y-117.
X146.8Y-120.
X147.Y-81.2
X147.Y-85.2
X147.Y-99.8
X147.2Y-111.
X148.Y-114.
X148.103Y-108.087
X148.159Y-102.87
X148.6Y-66.4
X148.6Y-71.6
X149.45Y-104.2
X149.45Y-105.3
X149.6Y-87.4
X150.Y-116.8
X150.115Y-101.189
X150.2Y-120.
X150.4Y-93.4
X150.4Y-112.2
X150.55Y-104.2
X150.55Y-105.3
X151.Y-62.
X151.607Y-100.053
X151.8Y-114.6
X152.342Y-101.587
X153.319Y-108.466
X153.6Y-66.4
X153.6Y-91.4
X153.6Y-95.4
X153.6Y-112.2
X153.8Y-82.
X153.8Y-86.6
X153.8Y-116.8
X153.8Y-120.
X154.Y-71.6
X154.Y-76.8
X154.769Y-110.748
X154.8Y-96.8
X154.8Y-100.2
X155.Y-62.
X155.272Y-106.59
X155.275Y-102.452
X156.4Y-114.4
X156.531Y-108.717
X157.Y-106.8
X157.63Y-104.351
X157.8Y-74.201
X157.8Y-120.
X158.294Y-110.478
X158.4Y-88.2
X158.4Y-92.8
X158.4Y-96.4
X158.4Y-100.
X158.4Y-108.4
X158.4Y-116.8
X158.6Y-83.6
X158.735Y-78.2
X158.8Y-103.2
X159.2Y-62.
X159.2Y-66.
X159.2Y-69.8
X159.2Y-112.6
X159.6Y-106.8
X159.879Y-104.345
X160.4Y-114.8
X161.139Y-104.345
X162.6Y-62.
X162.6Y-66.
X162.6Y-69.8
X162.6Y-74.2
X162.6Y-78.4
X162.6Y-83.8
X162.6Y-88.2
X162.6Y-92.6
X162.6Y-96.2
X162.6Y-99.8
X162.6Y-103.2
X162.6Y-106.8
X162.6Y-109.6
X162.6Y-116.6
X162.6Y-120.
X163.Y-111.2
X163.Y-112.
X163.Y-112.8
T3
X78.9Y-94.6
X78.9Y-95.7
X78.9Y-96.8
X78.9Y-97.9
X78.9Y-99.
X80.Y-94.6
X80.Y-95.7
X80.Y-96.8
X80.Y-97.9
X80.Y-99.
X81.1Y-94.6
X81.1Y-95.7
X81.1Y-96.8
X81.1Y-97.9
X81.1Y-99.
T4
X77.7Y-92.8
X82.7Y-92.8
T5
X103.Y-119.5
X105.54Y-119.5
X108.08Y-119.5
X110.62Y-119.5
X113.92Y-119.5
X116.46Y-119.5
X119.Y-119.5
X122.3Y-119.5
X124.84Y-119.5
X127.38Y-119.5
X129.92Y-119.5
X132.46Y-119.5
X135.Y-119.5
T6
X89.5Y-77.501
X89.5Y-82.499
X102.5Y-77.501
X102.5Y-82.499
X105.5Y-77.501
X105.5Y-82.499
X118.5Y-77.501
X118.5Y-82.499
X121.5Y-77.501
X121.5Y-82.499
X134.5Y-77.501
X134.5Y-82.499
X137.5Y-77.501
X137.5Y-82.499
X150.5Y-77.501
X150.5Y-82.499
T7
X81.6Y-73.6
X81.6Y-77.6
X81.6Y-81.6
T8
X83.4Y-100.98
X83.4Y-106.06
X83.4Y-111.14
T9
X88.15Y-71.7
X88.15Y-91.
X88.15Y-110.3
X160.65Y-71.7
X160.65Y-91.
X160.65Y-110.3
T10
X96.Y-75.682
X96.Y-84.318
X112.Y-75.682
X112.Y-84.318
X128.Y-75.682
X128.Y-84.318
X144.Y-75.682
X144.Y-84.318
T11
X81.6Y-69.35
X81.6Y-85.85
T12
X91.5Y-68.5
X96.Y-64.
X96.Y-71.
T13
X79.Y-65.
X79.Y-117.
X167.Y-65.
X167.Y-117.
T0
M30
