G04 #@! TF.FileFunction,Legend,Top*
%FSLAX46Y46*%
G04 Gerber Fmt 4.6, Leading zero omitted, Abs format (unit mm)*
G04 Created by KiCad (PCBNEW (2015-08-16 BZR 6097, Git b384c94)-product) date 30.08.2015 23:23:13*
%MOMM*%
G01*
G04 APERTURE LIST*
%ADD10C,0.100000*%
%ADD11C,0.150000*%
%ADD12C,0.127000*%
G04 APERTURE END LIST*
D10*
D11*
X85201260Y-92800000D02*
G75*
G03X85201260Y-92800000I-5001260J0D01*
G01*
X77200260Y-90801020D02*
X78201020Y-90801020D01*
X77700640Y-90300640D02*
X77700640Y-91298860D01*
X77850000Y-86100000D02*
X77850000Y-69100000D01*
X77850000Y-69100000D02*
X85350000Y-69100000D01*
X85350000Y-69100000D02*
X85350000Y-86100000D01*
X85350000Y-86100000D02*
X77850000Y-86100000D01*
X96000000Y-57000000D02*
X100500000Y-57000000D01*
X100500000Y-57000000D02*
X100500000Y-71000000D01*
X100500000Y-71000000D02*
X91500000Y-71000000D01*
X91500000Y-71000000D02*
X91500000Y-57000000D01*
D12*
X91500000Y-57000000D02*
X96000000Y-57000000D01*
D11*
X101730000Y-120770000D02*
X101476000Y-120770000D01*
X101476000Y-120770000D02*
X101476000Y-118230000D01*
X101476000Y-118230000D02*
X101730000Y-118230000D01*
X101730000Y-118230000D02*
X101603000Y-118230000D01*
X101603000Y-118230000D02*
X101603000Y-120770000D01*
X101730000Y-118230000D02*
X111890000Y-118230000D01*
X111890000Y-118230000D02*
X111890000Y-120770000D01*
X111890000Y-120770000D02*
X101730000Y-120770000D01*
X101730000Y-120770000D02*
X101730000Y-118230000D01*
X136270000Y-118230000D02*
X121030000Y-118230000D01*
X121030000Y-120770000D02*
X136270000Y-120770000D01*
X121030000Y-120770000D02*
X121030000Y-118230000D01*
X136270000Y-118230000D02*
X136524000Y-118230000D01*
X136524000Y-118230000D02*
X136524000Y-120770000D01*
X136524000Y-120770000D02*
X136270000Y-120770000D01*
X136270000Y-120770000D02*
X136397000Y-120770000D01*
X136397000Y-120770000D02*
X136397000Y-118230000D01*
X136270000Y-118230000D02*
X136270000Y-120770000D01*
X120270000Y-118230000D02*
X112650000Y-118230000D01*
X120270000Y-120770000D02*
X112650000Y-120770000D01*
X120270000Y-118230000D02*
X120524000Y-118230000D01*
X120524000Y-118230000D02*
X120524000Y-120770000D01*
X120524000Y-120770000D02*
X120270000Y-120770000D01*
X120270000Y-120770000D02*
X120397000Y-120770000D01*
X120397000Y-120770000D02*
X120397000Y-118230000D01*
X112650000Y-120770000D02*
X112650000Y-118230000D01*
X120270000Y-118230000D02*
X120270000Y-120770000D01*
X85550000Y-100650000D02*
X163250000Y-100650000D01*
X85550000Y-81350000D02*
X163250000Y-81350000D01*
X85550000Y-61150000D02*
X163250000Y-61150000D01*
X163250000Y-61150000D02*
X163250000Y-120850000D01*
X163250000Y-120850000D02*
X85550000Y-120850000D01*
X85550000Y-120850000D02*
X85550000Y-61150000D01*
X81368000Y-113680000D02*
X81368000Y-98440000D01*
X73494000Y-113680000D02*
X83400000Y-113680000D01*
X73494000Y-113680000D02*
X73494000Y-98440000D01*
X73494000Y-98440000D02*
X85432000Y-98440000D01*
X85432000Y-98440000D02*
X85432000Y-113680000D01*
X85400000Y-98480000D02*
X85400000Y-97980000D01*
X85400000Y-97980000D02*
X82000000Y-97980000D01*
X82000000Y-97980000D02*
X82000000Y-98480000D01*
X85400000Y-113680000D02*
X83400000Y-113680000D01*
X80100000Y-89514286D02*
X80071429Y-89542857D01*
X79985715Y-89571429D01*
X79928572Y-89571429D01*
X79842857Y-89542857D01*
X79785715Y-89485714D01*
X79757143Y-89428571D01*
X79728572Y-89314286D01*
X79728572Y-89228571D01*
X79757143Y-89114286D01*
X79785715Y-89057143D01*
X79842857Y-89000000D01*
X79928572Y-88971429D01*
X79985715Y-88971429D01*
X80071429Y-89000000D01*
X80100000Y-89028571D01*
X80642857Y-88971429D02*
X80357143Y-88971429D01*
X80328572Y-89257143D01*
X80357143Y-89228571D01*
X80414286Y-89200000D01*
X80557143Y-89200000D01*
X80614286Y-89228571D01*
X80642857Y-89257143D01*
X80671429Y-89314286D01*
X80671429Y-89457143D01*
X80642857Y-89514286D01*
X80614286Y-89542857D01*
X80557143Y-89571429D01*
X80414286Y-89571429D01*
X80357143Y-89542857D01*
X80328572Y-89514286D01*
X79242857Y-94971429D02*
X78900000Y-94971429D01*
X79071428Y-94971429D02*
X79071428Y-94371429D01*
X79014285Y-94457143D01*
X78957143Y-94514286D01*
X78900000Y-94542857D01*
X79614286Y-94371429D02*
X79671429Y-94371429D01*
X79728572Y-94400000D01*
X79757143Y-94428571D01*
X79785714Y-94485714D01*
X79814286Y-94600000D01*
X79814286Y-94742857D01*
X79785714Y-94857143D01*
X79757143Y-94914286D01*
X79728572Y-94942857D01*
X79671429Y-94971429D01*
X79614286Y-94971429D01*
X79557143Y-94942857D01*
X79528572Y-94914286D01*
X79500000Y-94857143D01*
X79471429Y-94742857D01*
X79471429Y-94600000D01*
X79500000Y-94485714D01*
X79528572Y-94428571D01*
X79557143Y-94400000D01*
X79614286Y-94371429D01*
X80185715Y-94371429D02*
X80242858Y-94371429D01*
X80300001Y-94400000D01*
X80328572Y-94428571D01*
X80357143Y-94485714D01*
X80385715Y-94600000D01*
X80385715Y-94742857D01*
X80357143Y-94857143D01*
X80328572Y-94914286D01*
X80300001Y-94942857D01*
X80242858Y-94971429D01*
X80185715Y-94971429D01*
X80128572Y-94942857D01*
X80100001Y-94914286D01*
X80071429Y-94857143D01*
X80042858Y-94742857D01*
X80042858Y-94600000D01*
X80071429Y-94485714D01*
X80100001Y-94428571D01*
X80128572Y-94400000D01*
X80185715Y-94371429D01*
X80757144Y-94371429D02*
X80814287Y-94371429D01*
X80871430Y-94400000D01*
X80900001Y-94428571D01*
X80928572Y-94485714D01*
X80957144Y-94600000D01*
X80957144Y-94742857D01*
X80928572Y-94857143D01*
X80900001Y-94914286D01*
X80871430Y-94942857D01*
X80814287Y-94971429D01*
X80757144Y-94971429D01*
X80700001Y-94942857D01*
X80671430Y-94914286D01*
X80642858Y-94857143D01*
X80614287Y-94742857D01*
X80614287Y-94600000D01*
X80642858Y-94485714D01*
X80671430Y-94428571D01*
X80700001Y-94400000D01*
X80757144Y-94371429D01*
X81471430Y-94571429D02*
X81471430Y-94971429D01*
X81214287Y-94571429D02*
X81214287Y-94885714D01*
X81242859Y-94942857D01*
X81300001Y-94971429D01*
X81385716Y-94971429D01*
X81442859Y-94942857D01*
X81471430Y-94914286D01*
X79342857Y-78400000D02*
X79371429Y-78314286D01*
X79371429Y-78171429D01*
X79342857Y-78114286D01*
X79314286Y-78085715D01*
X79257143Y-78057143D01*
X79200000Y-78057143D01*
X79142857Y-78085715D01*
X79114286Y-78114286D01*
X79085714Y-78171429D01*
X79057143Y-78285715D01*
X79028571Y-78342857D01*
X79000000Y-78371429D01*
X78942857Y-78400000D01*
X78885714Y-78400000D01*
X78828571Y-78371429D01*
X78800000Y-78342857D01*
X78771429Y-78285715D01*
X78771429Y-78142857D01*
X78800000Y-78057143D01*
X78771429Y-77857143D02*
X79371429Y-77714286D01*
X78942857Y-77600000D01*
X79371429Y-77485714D01*
X78771429Y-77342857D01*
X78771429Y-76828572D02*
X78771429Y-77114286D01*
X79057143Y-77142857D01*
X79028571Y-77114286D01*
X79000000Y-77057143D01*
X79000000Y-76914286D01*
X79028571Y-76857143D01*
X79057143Y-76828572D01*
X79114286Y-76800000D01*
X79257143Y-76800000D01*
X79314286Y-76828572D01*
X79342857Y-76857143D01*
X79371429Y-76914286D01*
X79371429Y-77057143D01*
X79342857Y-77114286D01*
X79314286Y-77142857D01*
X84592857Y-79392856D02*
X84621429Y-79307142D01*
X84621429Y-79164285D01*
X84592857Y-79107142D01*
X84564286Y-79078571D01*
X84507143Y-79049999D01*
X84450000Y-79049999D01*
X84392857Y-79078571D01*
X84364286Y-79107142D01*
X84335714Y-79164285D01*
X84307143Y-79278571D01*
X84278571Y-79335713D01*
X84250000Y-79364285D01*
X84192857Y-79392856D01*
X84135714Y-79392856D01*
X84078571Y-79364285D01*
X84050000Y-79335713D01*
X84021429Y-79278571D01*
X84021429Y-79135713D01*
X84050000Y-79049999D01*
X84021429Y-78849999D02*
X84621429Y-78707142D01*
X84192857Y-78592856D01*
X84621429Y-78478570D01*
X84021429Y-78335713D01*
X84621429Y-78107142D02*
X84021429Y-78107142D01*
X84021429Y-77907142D02*
X84021429Y-77564285D01*
X84621429Y-77735714D02*
X84021429Y-77735714D01*
X84564286Y-77021428D02*
X84592857Y-77049999D01*
X84621429Y-77135713D01*
X84621429Y-77192856D01*
X84592857Y-77278571D01*
X84535714Y-77335713D01*
X84478571Y-77364285D01*
X84364286Y-77392856D01*
X84278571Y-77392856D01*
X84164286Y-77364285D01*
X84107143Y-77335713D01*
X84050000Y-77278571D01*
X84021429Y-77192856D01*
X84021429Y-77135713D01*
X84050000Y-77049999D01*
X84078571Y-77021428D01*
X84621429Y-76764285D02*
X84021429Y-76764285D01*
X84307143Y-76764285D02*
X84307143Y-76421428D01*
X84621429Y-76421428D02*
X84021429Y-76421428D01*
X84678571Y-76278571D02*
X84678571Y-75821428D01*
X84621429Y-75678571D02*
X84021429Y-75678571D01*
X84307143Y-75678571D02*
X84307143Y-75335714D01*
X84621429Y-75335714D02*
X84021429Y-75335714D01*
X99671429Y-69978572D02*
X100271429Y-69578572D01*
X99671429Y-69578572D02*
X100271429Y-69978572D01*
X100271429Y-69064286D02*
X100271429Y-69350000D01*
X99671429Y-69350000D01*
X100271429Y-68550000D02*
X100271429Y-68892857D01*
X100271429Y-68721429D02*
X99671429Y-68721429D01*
X99757143Y-68778572D01*
X99814286Y-68835714D01*
X99842857Y-68892857D01*
X101207143Y-69757143D02*
X101235714Y-69671429D01*
X101264286Y-69642857D01*
X101321429Y-69614286D01*
X101407143Y-69614286D01*
X101464286Y-69642857D01*
X101492857Y-69671429D01*
X101521429Y-69728571D01*
X101521429Y-69957143D01*
X100921429Y-69957143D01*
X100921429Y-69757143D01*
X100950000Y-69700000D01*
X100978571Y-69671429D01*
X101035714Y-69642857D01*
X101092857Y-69642857D01*
X101150000Y-69671429D01*
X101178571Y-69700000D01*
X101207143Y-69757143D01*
X101207143Y-69957143D01*
X101350000Y-69385714D02*
X101350000Y-69100000D01*
X101521429Y-69442857D02*
X100921429Y-69242857D01*
X101521429Y-69042857D01*
X101521429Y-68500000D02*
X101235714Y-68700000D01*
X101521429Y-68842857D02*
X100921429Y-68842857D01*
X100921429Y-68614285D01*
X100950000Y-68557143D01*
X100978571Y-68528571D01*
X101035714Y-68500000D01*
X101121429Y-68500000D01*
X101178571Y-68528571D01*
X101207143Y-68557143D01*
X101235714Y-68614285D01*
X101235714Y-68842857D01*
X101521429Y-67900000D02*
X101235714Y-68100000D01*
X101521429Y-68242857D02*
X100921429Y-68242857D01*
X100921429Y-68014285D01*
X100950000Y-67957143D01*
X100978571Y-67928571D01*
X101035714Y-67900000D01*
X101121429Y-67900000D01*
X101178571Y-67928571D01*
X101207143Y-67957143D01*
X101235714Y-68014285D01*
X101235714Y-68242857D01*
X101207143Y-67642857D02*
X101207143Y-67442857D01*
X101521429Y-67357143D02*
X101521429Y-67642857D01*
X100921429Y-67642857D01*
X100921429Y-67357143D01*
X101521429Y-66814286D02*
X101521429Y-67100000D01*
X100921429Y-67100000D01*
X101578571Y-66757143D02*
X101578571Y-66300000D01*
X101492857Y-66185714D02*
X101521429Y-66100000D01*
X101521429Y-65957143D01*
X101492857Y-65900000D01*
X101464286Y-65871429D01*
X101407143Y-65842857D01*
X101350000Y-65842857D01*
X101292857Y-65871429D01*
X101264286Y-65900000D01*
X101235714Y-65957143D01*
X101207143Y-66071429D01*
X101178571Y-66128571D01*
X101150000Y-66157143D01*
X101092857Y-66185714D01*
X101035714Y-66185714D01*
X100978571Y-66157143D01*
X100950000Y-66128571D01*
X100921429Y-66071429D01*
X100921429Y-65928571D01*
X100950000Y-65842857D01*
X100921429Y-65471428D02*
X100921429Y-65357142D01*
X100950000Y-65300000D01*
X101007143Y-65242857D01*
X101121429Y-65214285D01*
X101321429Y-65214285D01*
X101435714Y-65242857D01*
X101492857Y-65300000D01*
X101521429Y-65357142D01*
X101521429Y-65471428D01*
X101492857Y-65528571D01*
X101435714Y-65585714D01*
X101321429Y-65614285D01*
X101121429Y-65614285D01*
X101007143Y-65585714D01*
X100950000Y-65528571D01*
X100921429Y-65471428D01*
X101464286Y-64614286D02*
X101492857Y-64642857D01*
X101521429Y-64728571D01*
X101521429Y-64785714D01*
X101492857Y-64871429D01*
X101435714Y-64928571D01*
X101378571Y-64957143D01*
X101264286Y-64985714D01*
X101178571Y-64985714D01*
X101064286Y-64957143D01*
X101007143Y-64928571D01*
X100950000Y-64871429D01*
X100921429Y-64785714D01*
X100921429Y-64728571D01*
X100950000Y-64642857D01*
X100978571Y-64614286D01*
X101521429Y-64357143D02*
X100921429Y-64357143D01*
X101521429Y-64014286D02*
X101178571Y-64271429D01*
X100921429Y-64014286D02*
X101264286Y-64357143D01*
X101207143Y-63757143D02*
X101207143Y-63557143D01*
X101521429Y-63471429D02*
X101521429Y-63757143D01*
X100921429Y-63757143D01*
X100921429Y-63471429D01*
X100921429Y-63300000D02*
X100921429Y-62957143D01*
X101521429Y-63128572D02*
X100921429Y-63128572D01*
X102332388Y-117322309D02*
X102732388Y-117922309D01*
X102732388Y-117322309D02*
X102332388Y-117922309D01*
X103246674Y-117922309D02*
X102960960Y-117922309D01*
X102960960Y-117322309D01*
X103418103Y-117379451D02*
X103446674Y-117350880D01*
X103503817Y-117322309D01*
X103646674Y-117322309D01*
X103703817Y-117350880D01*
X103732388Y-117379451D01*
X103760960Y-117436594D01*
X103760960Y-117493737D01*
X103732388Y-117579451D01*
X103389531Y-117922309D01*
X103760960Y-117922309D01*
X101285715Y-119952381D02*
X100714286Y-119952381D01*
X101000000Y-119952381D02*
X101000000Y-118952381D01*
X100904762Y-119095238D01*
X100809524Y-119190476D01*
X100714286Y-119238095D01*
X136771428Y-118171429D02*
X137171428Y-118771429D01*
X137171428Y-118171429D02*
X136771428Y-118771429D01*
X137685714Y-118771429D02*
X137400000Y-118771429D01*
X137400000Y-118171429D01*
X137828571Y-118171429D02*
X138200000Y-118171429D01*
X138000000Y-118400000D01*
X138085714Y-118400000D01*
X138142857Y-118428571D01*
X138171428Y-118457143D01*
X138200000Y-118514286D01*
X138200000Y-118657143D01*
X138171428Y-118714286D01*
X138142857Y-118742857D01*
X138085714Y-118771429D01*
X137914286Y-118771429D01*
X137857143Y-118742857D01*
X137828571Y-118714286D01*
X137285715Y-119952381D02*
X136714286Y-119952381D01*
X137000000Y-119952381D02*
X137000000Y-118952381D01*
X136904762Y-119095238D01*
X136809524Y-119190476D01*
X136714286Y-119238095D01*
X118771428Y-117421429D02*
X119171428Y-118021429D01*
X119171428Y-117421429D02*
X118771428Y-118021429D01*
X119685714Y-118021429D02*
X119400000Y-118021429D01*
X119400000Y-117421429D01*
X120142857Y-117621429D02*
X120142857Y-118021429D01*
X120000000Y-117392857D02*
X119857143Y-117821429D01*
X120228571Y-117821429D01*
X121285715Y-119952381D02*
X120714286Y-119952381D01*
X121000000Y-119952381D02*
X121000000Y-118952381D01*
X120904762Y-119095238D01*
X120809524Y-119190476D01*
X120714286Y-119238095D01*
X123671428Y-91457143D02*
X123757142Y-91485714D01*
X123785714Y-91514286D01*
X123814285Y-91571429D01*
X123814285Y-91657143D01*
X123785714Y-91714286D01*
X123757142Y-91742857D01*
X123700000Y-91771429D01*
X123471428Y-91771429D01*
X123471428Y-91171429D01*
X123671428Y-91171429D01*
X123728571Y-91200000D01*
X123757142Y-91228571D01*
X123785714Y-91285714D01*
X123785714Y-91342857D01*
X123757142Y-91400000D01*
X123728571Y-91428571D01*
X123671428Y-91457143D01*
X123471428Y-91457143D01*
X124042857Y-91600000D02*
X124328571Y-91600000D01*
X123985714Y-91771429D02*
X124185714Y-91171429D01*
X124385714Y-91771429D01*
X124500000Y-91171429D02*
X124842857Y-91171429D01*
X124671428Y-91771429D02*
X124671428Y-91171429D01*
X125357143Y-91771429D02*
X125014286Y-91771429D01*
X125185714Y-91771429D02*
X125185714Y-91171429D01*
X125128571Y-91257143D01*
X125071429Y-91314286D01*
X125014286Y-91342857D01*
X123428571Y-90457143D02*
X123514285Y-90485714D01*
X123542857Y-90514286D01*
X123571428Y-90571429D01*
X123571428Y-90657143D01*
X123542857Y-90714286D01*
X123514285Y-90742857D01*
X123457143Y-90771429D01*
X123228571Y-90771429D01*
X123228571Y-90171429D01*
X123428571Y-90171429D01*
X123485714Y-90200000D01*
X123514285Y-90228571D01*
X123542857Y-90285714D01*
X123542857Y-90342857D01*
X123514285Y-90400000D01*
X123485714Y-90428571D01*
X123428571Y-90457143D01*
X123228571Y-90457143D01*
X123800000Y-90600000D02*
X124085714Y-90600000D01*
X123742857Y-90771429D02*
X123942857Y-90171429D01*
X124142857Y-90771429D01*
X124257143Y-90171429D02*
X124600000Y-90171429D01*
X124428571Y-90771429D02*
X124428571Y-90171429D01*
X124742857Y-90771429D02*
X125057143Y-90371429D01*
X124742857Y-90371429D02*
X125057143Y-90771429D01*
X125228571Y-90171429D02*
X125600000Y-90171429D01*
X125400000Y-90400000D01*
X125485714Y-90400000D01*
X125542857Y-90428571D01*
X125571428Y-90457143D01*
X125600000Y-90514286D01*
X125600000Y-90657143D01*
X125571428Y-90714286D01*
X125542857Y-90742857D01*
X125485714Y-90771429D01*
X125314286Y-90771429D01*
X125257143Y-90742857D01*
X125228571Y-90714286D01*
X86627429Y-100184572D02*
X87227429Y-99784572D01*
X86627429Y-99784572D02*
X87227429Y-100184572D01*
X87227429Y-99270286D02*
X87227429Y-99556000D01*
X86627429Y-99556000D01*
X86627429Y-98784572D02*
X86627429Y-99070286D01*
X86913143Y-99098857D01*
X86884571Y-99070286D01*
X86856000Y-99013143D01*
X86856000Y-98870286D01*
X86884571Y-98813143D01*
X86913143Y-98784572D01*
X86970286Y-98756000D01*
X87113143Y-98756000D01*
X87170286Y-98784572D01*
X87198857Y-98813143D01*
X87227429Y-98870286D01*
X87227429Y-99013143D01*
X87198857Y-99070286D01*
X87170286Y-99098857D01*
X86244286Y-105961428D02*
X86272857Y-105989999D01*
X86301429Y-106075713D01*
X86301429Y-106132856D01*
X86272857Y-106218571D01*
X86215714Y-106275713D01*
X86158571Y-106304285D01*
X86044286Y-106332856D01*
X85958571Y-106332856D01*
X85844286Y-106304285D01*
X85787143Y-106275713D01*
X85730000Y-106218571D01*
X85701429Y-106132856D01*
X85701429Y-106075713D01*
X85730000Y-105989999D01*
X85758571Y-105961428D01*
X85701429Y-105589999D02*
X85701429Y-105475713D01*
X85730000Y-105418571D01*
X85787143Y-105361428D01*
X85901429Y-105332856D01*
X86101429Y-105332856D01*
X86215714Y-105361428D01*
X86272857Y-105418571D01*
X86301429Y-105475713D01*
X86301429Y-105589999D01*
X86272857Y-105647142D01*
X86215714Y-105704285D01*
X86101429Y-105732856D01*
X85901429Y-105732856D01*
X85787143Y-105704285D01*
X85730000Y-105647142D01*
X85701429Y-105589999D01*
X86301429Y-105075714D02*
X85701429Y-105075714D01*
X86301429Y-104732857D01*
X85701429Y-104732857D01*
X86301429Y-104447143D02*
X85701429Y-104447143D01*
X86301429Y-104104286D01*
X85701429Y-104104286D01*
X86358571Y-103961429D02*
X86358571Y-103504286D01*
X85701429Y-103418572D02*
X85701429Y-103047143D01*
X85930000Y-103247143D01*
X85930000Y-103161429D01*
X85958571Y-103104286D01*
X85987143Y-103075715D01*
X86044286Y-103047143D01*
X86187143Y-103047143D01*
X86244286Y-103075715D01*
X86272857Y-103104286D01*
X86301429Y-103161429D01*
X86301429Y-103332857D01*
X86272857Y-103390000D01*
X86244286Y-103418572D01*
M02*
